<svg width="19" height="18" viewBox="0 0 19 18" fill="none" xmlns="http://www.w3.org/2000/svg">
<g clip-path="url(#clip0_563_2617)">
<path opacity="0.3" d="M2.97699 3.75L2.91699 3.81V14.25H16.357C16.3795 14.235 16.402 14.205 16.417 14.19V3.81L16.357 3.75H2.97699ZM4.41699 12.75L7.04199 9.375L8.91699 11.6325L11.542 8.25L14.917 12.75H4.41699Z" fill="#707070"/>
<path d="M16.417 2.25H2.91699C2.16699 2.25 1.41699 3 1.41699 3.75V14.25C1.41699 15.075 2.09199 15.75 2.91699 15.75H16.417C17.167 15.75 17.917 15 17.917 14.25V3.75C17.917 3 17.167 2.25 16.417 2.25ZM16.417 14.19C16.402 14.2125 16.372 14.235 16.357 14.25H2.91699V3.81L2.97699 3.75H16.3495C16.372 3.765 16.3945 3.795 16.4095 3.81V14.19H16.417ZM8.91699 11.6325L7.04199 9.375L4.41699 12.75H14.917L11.542 8.25L8.91699 11.6325Z" fill="#323232"/>
</g>
<defs>
<clipPath id="clip0_563_2617">
<rect width="18" height="18" fill="white" transform="translate(0.666992)"/>
</clipPath>
</defs>
</svg>
