<svg width="21" height="20" viewBox="0 0 21 20" fill="none" xmlns="http://www.w3.org/2000/svg">
<g id="photo_size_select_actual" clip-path="url(#clip0_2219_89)">
<path id="Vector" opacity="0.3" d="M3.23335 4.16667L3.16669 4.23333V15.8333H18.1C18.125 15.8167 18.15 15.7833 18.1667 15.7667V4.23333L18.1 4.16667H3.23335ZM4.83335 14.1667L7.75002 10.4167L9.83335 12.925L12.75 9.16667L16.5 14.1667H4.83335Z" fill="white" fill-opacity="0.6"/>
<path id="Vector_2" d="M18.1667 2.5H3.1667C2.33336 2.5 1.50003 3.33333 1.50003 4.16667V15.8333C1.50003 16.75 2.25003 17.5 3.1667 17.5H18.1667C19 17.5 19.8334 16.6667 19.8334 15.8333V4.16667C19.8334 3.33333 19 2.5 18.1667 2.5ZM18.1667 15.7667C18.15 15.7917 18.1167 15.8167 18.1 15.8333H3.1667V4.23333L3.23336 4.16667H18.0917C18.1167 4.18333 18.1417 4.21667 18.1584 4.23333V15.7667H18.1667ZM9.83336 12.925L7.75003 10.4167L4.83336 14.1667H16.5L12.75 9.16667L9.83336 12.925Z" fill="white" fill-opacity="0.6"/>
</g>
<defs>
<clipPath id="clip0_2219_89">
<rect width="20" height="20" fill="white" transform="translate(0.666687)"/>
</clipPath>
</defs>
</svg>
