<svg width="29" height="25" viewBox="0 0 29 25" fill="none" xmlns="http://www.w3.org/2000/svg">
<path d="M11.3105 11.8946C11.3104 11.3951 11.7118 10.9882 12.2113 10.9816H16.7887C17.2882 10.9882 17.6896 11.3951 17.6895 11.8946V12.1989C17.6895 12.5351 17.962 12.8077 18.2982 12.8076H27.8913C28.2275 12.8076 28.5 12.5351 28.5 12.1989V7.63381C28.5 6.96143 27.955 6.41643 27.2826 6.41643H20.5869C20.5869 1.7306 15.5145 -1.19797 11.4565 1.14488C9.57321 2.23227 8.4131 4.24167 8.4131 6.41643H1.71738C1.045 6.41643 0.5 6.96143 0.5 7.63381V12.1989C0.5 12.5351 0.7725 12.8076 1.10869 12.8076H10.7018C11.0379 12.8076 11.3105 12.5351 11.3105 12.1989V11.8946ZM14.5 3.37286C16.3014 3.34774 17.852 4.64 18.1521 6.41643H10.8479C11.148 4.64 12.6986 3.34774 14.5 3.37286Z" fill="white"/>
<path d="M17.6895 15.7061C17.6912 17.723 15.8438 19.235 13.8669 18.8348C12.3452 18.4942 11.2721 17.1313 11.2982 15.5722V15.2435C11.2982 14.9073 11.0257 14.6348 10.6895 14.6348H1.10869C0.7725 14.6348 0.5 14.9073 0.5 15.2435V23.4609C0.5 24.1332 1.045 24.6782 1.71738 24.6782H27.2826C27.955 24.6782 28.5 24.1332 28.5 23.4609V15.2435C28.5 14.9073 28.2275 14.6348 27.8913 14.6348H18.3592C18.0021 14.6066 17.6955 14.8854 17.6895 15.2435V15.7061Z" fill="white"/>
<path d="M15.2549 12.8086H13.7454C13.4092 12.8086 13.1367 13.0812 13.1367 13.4173V15.706C13.1367 16.7556 14.2729 17.4117 15.182 16.8868C15.6037 16.6432 15.8636 16.1931 15.8636 15.706V13.4173C15.8636 13.0812 15.5911 12.8086 15.2549 12.8086Z" fill="white"/>
</svg>
