{
	"asset":{
		"generator":"Khronos glTF Blender I/O v4.2.69",
		"version":"2.0"
	},
	"scene":0,
	"scenes":[
		{
			"name":"Scene",
			"nodes":[
				8
			]
		}
	],
	"nodes":[
		{
			"mesh":0,
			"name":"darkroom_interior"
		},
		{
			"mesh":1,
			"name":"desk_bottom"
		},
		{
			"mesh":2,
			"name":"desk_top"
		},
		{
			"mesh":3,
			"name":"drawer"
		},
		{
			"mesh":4,
			"name":"front_wall"
		},
		{
			"mesh":5,
			"name":"shelf"
		},
		{
			"mesh":6,
			"name":"shelf1"
		},
		{
			"mesh":7,
			"name":"shelf2"
		},
		{
			"children":[
				0,
				1,
				2,
				3,
				4,
				5,
				6,
				7
			],
			"name":"demo_darkroom",
			"rotation":[
				0.7071068286895752,
				0,
				0,
				0.7071068286895752
			],
			"scale":[
				0.05707923322916031,
				0.03538651764392853,
				0.03326525539159775
			]
		}
	],
	"materials":[
		{
			"doubleSided":true,
			"name":"standardSurface1",
			"pbrMetallicRoughness":{
				"metallicFactor":0,
				"roughnessFactor":0.5527864098548889
			}
		}
	],
	"meshes":[
		{
			"name":"Mesh.004",
			"primitives":[
				{
					"attributes":{
						"POSITION":0,
						"NORMAL":1,
						"TEXCOORD_0":2
					},
					"indices":3,
					"material":0
				}
			]
		},
		{
			"name":"Mesh.006",
			"primitives":[
				{
					"attributes":{
						"POSITION":4,
						"NORMAL":5,
						"TEXCOORD_0":6
					},
					"indices":7,
					"material":0
				}
			]
		},
		{
			"name":"Mesh.002",
			"primitives":[
				{
					"attributes":{
						"POSITION":8,
						"NORMAL":9,
						"TEXCOORD_0":10
					},
					"indices":11,
					"material":0
				}
			]
		},
		{
			"name":"Mesh.005",
			"primitives":[
				{
					"attributes":{
						"POSITION":12,
						"NORMAL":13,
						"TEXCOORD_0":14
					},
					"indices":15,
					"material":0
				}
			]
		},
		{
			"name":"Mesh.007",
			"primitives":[
				{
					"attributes":{
						"POSITION":16,
						"NORMAL":17,
						"TEXCOORD_0":18
					},
					"indices":19,
					"material":0
				}
			]
		},
		{
			"name":"Mesh.003",
			"primitives":[
				{
					"attributes":{
						"POSITION":20,
						"NORMAL":21,
						"TEXCOORD_0":22
					},
					"indices":23,
					"material":0
				}
			]
		},
		{
			"name":"Mesh",
			"primitives":[
				{
					"attributes":{
						"POSITION":24,
						"NORMAL":25,
						"TEXCOORD_0":26
					},
					"indices":23,
					"material":0
				}
			]
		},
		{
			"name":"Mesh.001",
			"primitives":[
				{
					"attributes":{
						"POSITION":27,
						"NORMAL":28,
						"TEXCOORD_0":29
					},
					"indices":23,
					"material":0
				}
			]
		}
	],
	"accessors":[
		{
			"bufferView":0,
			"componentType":5126,
			"count":212,
			"max":[
				1.2455079555511475,
				0.8498567938804626,
				0.07499337941408157
			],
			"min":[
				-1.2455079555511475,
				-0.8498567938804626,
				-2.316534996032715
			],
			"type":"VEC3"
		},
		{
			"bufferView":1,
			"componentType":5126,
			"count":212,
			"type":"VEC3"
		},
		{
			"bufferView":2,
			"componentType":5126,
			"count":212,
			"type":"VEC2"
		},
		{
			"bufferView":3,
			"componentType":5123,
			"count":342,
			"type":"SCALAR"
		},
		{
			"bufferView":4,
			"componentType":5126,
			"count":104,
			"max":[
				1.1685826778411865,
				0.7744911313056946,
				1.1175870895385742e-08
			],
			"min":[
				-1.168582558631897,
				-0.3429696559906006,
				-0.799200177192688
			],
			"type":"VEC3"
		},
		{
			"bufferView":5,
			"componentType":5126,
			"count":104,
			"type":"VEC3"
		},
		{
			"bufferView":6,
			"componentType":5126,
			"count":104,
			"type":"VEC2"
		},
		{
			"bufferView":7,
			"componentType":5123,
			"count":192,
			"type":"SCALAR"
		},
		{
			"bufferView":8,
			"componentType":5126,
			"count":48,
			"max":[
				1.1685826778411865,
				0.7752490639686584,
				-0.7992795705795288
			],
			"min":[
				-1.168582558631897,
				-0.7943127751350403,
				-0.8301095962524414
			],
			"type":"VEC3"
		},
		{
			"bufferView":9,
			"componentType":5126,
			"count":48,
			"type":"VEC3"
		},
		{
			"bufferView":10,
			"componentType":5126,
			"count":48,
			"type":"VEC2"
		},
		{
			"bufferView":11,
			"componentType":5123,
			"count":90,
			"type":"SCALAR"
		},
		{
			"bufferView":12,
			"componentType":5126,
			"count":48,
			"max":[
				-0.6157822012901306,
				0.7752490639686584,
				-0.39773815870285034
			],
			"min":[
				-1.025409460067749,
				0.061058610677719116,
				-0.7942594289779663
			],
			"type":"VEC3"
		},
		{
			"bufferView":13,
			"componentType":5126,
			"count":48,
			"type":"VEC3"
		},
		{
			"bufferView":14,
			"componentType":5126,
			"count":48,
			"type":"VEC2"
		},
		{
			"bufferView":15,
			"componentType":5123,
			"count":84,
			"type":"SCALAR"
		},
		{
			"bufferView":16,
			"componentType":5126,
			"count":48,
			"max":[
				1.168582558631897,
				0.8498567938804626,
				2.384185791015625e-06
			],
			"min":[
				-1.168582558631897,
				0.7744910717010498,
				-2.241541862487793
			],
			"type":"VEC3"
		},
		{
			"bufferView":17,
			"componentType":5126,
			"count":48,
			"type":"VEC3"
		},
		{
			"bufferView":18,
			"componentType":5126,
			"count":48,
			"type":"VEC2"
		},
		{
			"bufferView":19,
			"componentType":5123,
			"count":84,
			"type":"SCALAR"
		},
		{
			"bufferView":20,
			"componentType":5126,
			"count":16,
			"max":[
				-0.7589552402496338,
				0.7752490639686584,
				-1.150989055633545
			],
			"min":[
				-1.168582558631897,
				-0.46514612436294556,
				-1.181818962097168
			],
			"type":"VEC3"
		},
		{
			"bufferView":21,
			"componentType":5126,
			"count":16,
			"type":"VEC3"
		},
		{
			"bufferView":22,
			"componentType":5126,
			"count":16,
			"type":"VEC2"
		},
		{
			"bufferView":23,
			"componentType":5123,
			"count":24,
			"type":"SCALAR"
		},
		{
			"bufferView":24,
			"componentType":5126,
			"count":16,
			"max":[
				-0.7589552402496338,
				0.7752490639686584,
				-1.470033049583435
			],
			"min":[
				-1.168582558631897,
				-0.10425975918769836,
				-1.5008630752563477
			],
			"type":"VEC3"
		},
		{
			"bufferView":25,
			"componentType":5126,
			"count":16,
			"type":"VEC3"
		},
		{
			"bufferView":26,
			"componentType":5126,
			"count":16,
			"type":"VEC2"
		},
		{
			"bufferView":27,
			"componentType":5126,
			"count":16,
			"max":[
				-0.7589552402496338,
				0.7752490639686584,
				-1.870192527770996
			],
			"min":[
				-1.168582558631897,
				0.3509255051612854,
				-1.9010225534439087
			],
			"type":"VEC3"
		},
		{
			"bufferView":28,
			"componentType":5126,
			"count":16,
			"type":"VEC3"
		},
		{
			"bufferView":29,
			"componentType":5126,
			"count":16,
			"type":"VEC2"
		}
	],
	"bufferViews":[
		{
			"buffer":0,
			"byteLength":2544,
			"byteOffset":0,
			"target":34962
		},
		{
			"buffer":0,
			"byteLength":2544,
			"byteOffset":2544,
			"target":34962
		},
		{
			"buffer":0,
			"byteLength":1696,
			"byteOffset":5088,
			"target":34962
		},
		{
			"buffer":0,
			"byteLength":684,
			"byteOffset":6784,
			"target":34963
		},
		{
			"buffer":0,
			"byteLength":1248,
			"byteOffset":7468,
			"target":34962
		},
		{
			"buffer":0,
			"byteLength":1248,
			"byteOffset":8716,
			"target":34962
		},
		{
			"buffer":0,
			"byteLength":832,
			"byteOffset":9964,
			"target":34962
		},
		{
			"buffer":0,
			"byteLength":384,
			"byteOffset":10796,
			"target":34963
		},
		{
			"buffer":0,
			"byteLength":576,
			"byteOffset":11180,
			"target":34962
		},
		{
			"buffer":0,
			"byteLength":576,
			"byteOffset":11756,
			"target":34962
		},
		{
			"buffer":0,
			"byteLength":384,
			"byteOffset":12332,
			"target":34962
		},
		{
			"buffer":0,
			"byteLength":180,
			"byteOffset":12716,
			"target":34963
		},
		{
			"buffer":0,
			"byteLength":576,
			"byteOffset":12896,
			"target":34962
		},
		{
			"buffer":0,
			"byteLength":576,
			"byteOffset":13472,
			"target":34962
		},
		{
			"buffer":0,
			"byteLength":384,
			"byteOffset":14048,
			"target":34962
		},
		{
			"buffer":0,
			"byteLength":168,
			"byteOffset":14432,
			"target":34963
		},
		{
			"buffer":0,
			"byteLength":576,
			"byteOffset":14600,
			"target":34962
		},
		{
			"buffer":0,
			"byteLength":576,
			"byteOffset":15176,
			"target":34962
		},
		{
			"buffer":0,
			"byteLength":384,
			"byteOffset":15752,
			"target":34962
		},
		{
			"buffer":0,
			"byteLength":168,
			"byteOffset":16136,
			"target":34963
		},
		{
			"buffer":0,
			"byteLength":192,
			"byteOffset":16304,
			"target":34962
		},
		{
			"buffer":0,
			"byteLength":192,
			"byteOffset":16496,
			"target":34962
		},
		{
			"buffer":0,
			"byteLength":128,
			"byteOffset":16688,
			"target":34962
		},
		{
			"buffer":0,
			"byteLength":48,
			"byteOffset":16816,
			"target":34963
		},
		{
			"buffer":0,
			"byteLength":192,
			"byteOffset":16864,
			"target":34962
		},
		{
			"buffer":0,
			"byteLength":192,
			"byteOffset":17056,
			"target":34962
		},
		{
			"buffer":0,
			"byteLength":128,
			"byteOffset":17248,
			"target":34962
		},
		{
			"buffer":0,
			"byteLength":192,
			"byteOffset":17376,
			"target":34962
		},
		{
			"buffer":0,
			"byteLength":192,
			"byteOffset":17568,
			"target":34962
		},
		{
			"buffer":0,
			"byteLength":128,
			"byteOffset":17760,
			"target":34962
		}
	],
	"buffers":[
		{
			"byteLength":17888,
			"uri":"darkroom.bin"
		}
	]
}
